<?xml version="1.0" encoding="UTF-8" standalone="no"?>
<svg
   xmlns:dc="http://purl.org/dc/elements/1.1/"
   xmlns:cc="http://creativecommons.org/ns#"
   xmlns:rdf="http://www.w3.org/1999/02/22-rdf-syntax-ns#"
   xmlns:svg="http://www.w3.org/2000/svg"
   xmlns="http://www.w3.org/2000/svg"
   viewBox="0 0 1066.6667 1066.6667"
   height="1066.6667"
   width="1066.6667"
   xml:space="preserve"
   id="svg2"
   version="1.1"><metadata
     id="metadata8"><rdf:RDF><cc:Work
         rdf:about=""><dc:format>image/svg+xml</dc:format><dc:type
           rdf:resource="http://purl.org/dc/dcmitype/StillImage" /></cc:Work></rdf:RDF></metadata><defs
     id="defs6"><clipPath
       id="clipPath18"
       clipPathUnits="userSpaceOnUse"><path
         id="path16"
         d="M 0,800 H 800 V 0 H 0 Z" /></clipPath></defs><g
     transform="matrix(1.3333333,0,0,-1.3333333,0,1066.6667)"
     id="g10"><g
       id="g12"><g
         clip-path="url(#clipPath18)"
         id="g14"><g
           transform="translate(508.1074,317.3154)"
           id="g20"><path
             id="path22"
             style="fill:#332d2b;fill-opacity:1;fill-rule:nonzero;stroke:none"
             d="M 0,0 C 0,0 29.985,107.963 36.496,134.119 43.007,107.963 72.994,0 72.994,0 Z M 75.781,187.292 H -2.788 L -46.547,50.311 -12.886,-55.063 H 88.362 l 21.391,-74.885 h 67.369 z" /></g><g
           transform="translate(254.3584,361.5645)"
           id="g24"><path
             id="path26"
             style="fill:#332d2b;fill-opacity:1;fill-rule:nonzero;stroke:none"
             d="M 0,0 C 0,0 40.199,144.729 48.926,179.788 57.652,144.729 97.852,0 97.852,0 Z M 101.588,251.068 H -3.737 l -135.851,-425.265 h 90.313 l 28.673,100.386 h 139.054 l 28.674,-100.386 h 90.313 z" /></g></g></g></g></svg>