<?xml version="1.0" encoding="utf-8"?>
<!-- Svg Vector Icons : http://www.onlinewebfonts.com/icon -->
<!DOCTYPE svg PUBLIC "-//W3C//DTD SVG 1.1//EN" "http://www.w3.org/Graphics/SVG/1.1/DTD/svg11.dtd">
<svg version="1.1" xmlns="http://www.w3.org/2000/svg" xmlns:xlink="http://www.w3.org/1999/xlink" x="0px" y="0px" viewBox="0 0 256 256" enable-background="new 0 0 256 256" xml:space="preserve">
<metadata> Svg Vector Icons : http://www.onlinewebfonts.com/icon </metadata>
<g><g><path fill="#000000" d="M236.5,118.2h-10.7c-4.6-46.4-41.6-83.4-88-88V19.4c0-5.2-4.2-9.4-9.4-9.4h-0.8c-5.2,0-9.4,4.2-9.4,9.4v10.7c-46.4,4.6-83.4,41.6-88,88H19.4c-5.2,0-9.4,4.2-9.4,9.4v0.8c0,5.2,4.2,9.4,9.4,9.4h10.7c4.6,46.4,41.6,83.4,88,88v10.7c0,5.2,4.2,9.4,9.4,9.4h0.8c5.2,0,9.4-4.2,9.4-9.4v-10.7c46.4-4.6,83.4-41.6,88-88h10.7c5.2,0,9.4-4.2,9.4-9.4v-0.8C246,122.4,241.8,118.2,236.5,118.2z M201.2,158.9c-4,9.5-9.7,18-17,25.3c-7.3,7.3-15.8,13-25.3,17c-6.8,2.9-13.8,4.7-21.1,5.6v-39.4c0-5.2-4.2-9.4-9.4-9.4h-0.8c-5.2,0-9.4,4.2-9.4,9.4v39.4c-7.3-0.9-14.3-2.8-21.1-5.6c-9.5-4-18-9.7-25.3-17c-7.3-7.3-13-15.8-17-25.3c-2.9-6.8-4.7-13.8-5.6-21.1h39.4c5.2,0,9.4-4.2,9.4-9.4v-0.8c0-5.2-4.2-9.4-9.4-9.4H49.1c0.9-7.3,2.8-14.3,5.6-21.1c4-9.5,9.7-18,17-25.3c7.3-7.3,15.8-13,25.3-17c6.8-2.9,13.8-4.7,21.1-5.6v39.4c0,5.2,4.2,9.4,9.4,9.4h0.8c5.2,0,9.4-4.2,9.4-9.4V49.2c7.3,0.9,14.3,2.8,21.1,5.6c9.5,4,18,9.7,25.3,17c7.3,7.3,13,15.8,17,25.3c2.9,6.8,4.7,13.8,5.6,21.1h-39.4c-5.2,0-9.4,4.2-9.4,9.4v0.8c0,5.2,4.2,9.4,9.4,9.4h39.4C205.9,145.1,204.1,152.1,201.2,158.9z"/></g></g>
</svg>