<?xml version="1.0" encoding="iso-8859-1"?>
<!-- Generator: Adobe Illustrator 19.1.0, SVG Export Plug-In . SVG Version: 6.00 Build 0)  -->
<svg version="1.1" id="Capa_1" xmlns="http://www.w3.org/2000/svg" xmlns:xlink="http://www.w3.org/1999/xlink" x="0px" y="0px"
	 viewBox="0 0 510.024 510.024" style="enable-background:new 0 0 510.024 510.024;" xml:space="preserve">
<g>
	<g>
		<path style="fill:#222222;" d="M274.766,12.403c-0.744,0.021-1.485,0.094-2.219,0.219H131.016c-8.836,0.001-15.999,7.164-16,16
			v109h-25c-7.232-0.087-13.947,3.737-17.562,10H50.016c-8.161-0.109-15.569,4.752-18.719,12.281L2.859,207.309
			c-2.673,4.447-3.513,9.758-2.344,14.812l60,260c2.097,9.078,10.183,15.505,19.5,15.5h399.969c0.052,0,0.104,0,0.156,0
			c0.396-0.009,0.792-0.03,1.188-0.062c0.313-0.013,0.626-0.034,0.938-0.062c0.556-0.071,1.108-0.164,1.656-0.281
			c0.021,0,0.042,0,0.062,0c0.632-0.126,1.258-0.282,1.875-0.469c0.021-0.01,0.042-0.021,0.062-0.031c0.01,0,0.021,0,0.031,0
			c0.625-0.199,1.241-0.428,1.844-0.688c0.284-0.119,0.565-0.244,0.844-0.375c0.042-0.021,0.083-0.041,0.125-0.062
			c0.274-0.119,0.544-0.244,0.812-0.375c0.01-0.01,0.021-0.021,0.031-0.031c0.158-0.092,0.314-0.185,0.469-0.281
			c0.052-0.031,0.104-0.062,0.156-0.094c0.525-0.31,1.036-0.644,1.531-1c0.042-0.031,0.083-0.062,0.125-0.094
			c0.031-0.021,0.063-0.041,0.094-0.062c0.169-0.143,0.336-0.289,0.5-0.438c0.353-0.27,0.697-0.551,1.031-0.844
			c0.042-0.042,0.084-0.083,0.125-0.125c0.234-0.213,0.464-0.432,0.688-0.656c0.138-0.144,0.273-0.29,0.406-0.438
			c0.314-0.344,0.617-0.698,0.906-1.062c0.042-0.052,0.084-0.104,0.125-0.156c0.238-0.306,0.467-0.618,0.688-0.938
			c0.184-0.266,0.361-0.537,0.531-0.812c0.053-0.073,0.105-0.146,0.156-0.219c0.085-0.155,0.169-0.311,0.25-0.469
			c0.151-0.247,0.297-0.497,0.438-0.75c0.01-0.01,0.021-0.021,0.031-0.031c0.075-0.166,0.148-0.332,0.219-0.5
			c0.253-0.531,0.482-1.073,0.688-1.625c0.032-0.073,0.063-0.146,0.094-0.219c0.032-0.114,0.063-0.229,0.094-0.344
			c0.065-0.176,0.128-0.353,0.188-0.531c0.054-0.156,0.106-0.312,0.156-0.469c0-0.01,0-0.021,0-0.031
			c0.044-0.187,0.086-0.374,0.125-0.562c0.12-0.455,0.225-0.913,0.312-1.375c0.011-0.094,0.021-0.187,0.031-0.281
			c0.051-0.343,0.092-0.687,0.125-1.031c0.035-0.229,0.066-0.458,0.094-0.688c0.001-0.125,0.001-0.25,0-0.375
			c0.011-0.062,0.021-0.125,0.031-0.188c0.001-0.083,0.001-0.167,0-0.25l10-320c0.344-11.041-8.328-20.271-19.369-20.615
			c-0.21-0.007-0.42-0.01-0.631-0.01h-95v-2.406c0.957-5.816-1.36-11.687-6.031-15.281L287.609,18.561
			c-3.082-3.949-7.835-6.228-12.844-6.156L274.766,12.403L274.766,12.403z M147.016,44.622h112v85.438
			c-0.836,5.136,0.877,10.358,4.594,14c0.041,0.042,0.083,0.084,0.125,0.125c0.072,0.074,0.145,0.147,0.219,0.219
			c3.643,3.484,8.715,5.047,13.688,4.219h85.375v49H231.328l-24.156-40.281c-3.614-6.029-10.127-9.719-17.156-9.719h-43
			L147.016,44.622L147.016,44.622z M291.016,67.247l49.375,49.375h-49.375V67.247L291.016,67.247z M395.016,177.622h74.344
			l-5.594,179.125l-44.625-145c0-0.01,0-0.021,0-0.031c-0.199-0.625-0.428-1.241-0.688-1.844c0-0.01,0-0.021,0-0.031
			c-0.262-0.608-0.554-1.202-0.875-1.781c0-0.01,0-0.021,0-0.031c-0.317-0.569-0.661-1.121-1.031-1.656c0-0.01,0-0.021,0-0.031
			c-0.38-0.541-0.787-1.062-1.219-1.562c0-0.01,0-0.021,0-0.031c-0.424-0.501-0.873-0.981-1.344-1.438
			c-0.01-0.01-0.021-0.021-0.031-0.031c-0.468-0.461-0.958-0.899-1.469-1.312c-0.01,0-0.021,0-0.031,0
			c-0.512-0.411-1.044-0.797-1.594-1.156c-0.01,0-0.021,0-0.031,0c-0.546-0.361-1.109-0.694-1.688-1c-0.01,0-0.021,0-0.031,0
			c-0.59-0.301-1.195-0.572-1.812-0.812c-0.614-0.239-1.24-0.448-1.875-0.625c-1.216-0.336-2.461-0.555-3.719-0.656
			c-0.073-0.011-0.146-0.021-0.219-0.031c-0.01,0-0.021,0-0.031,0c-0.478-0.038-0.958-0.059-1.438-0.062h-5L395.016,177.622
			L395.016,177.622z M61.328,187.622h53.687h63.688l24.156,40.281c3.614,6.029,10.127,9.719,17.156,9.719h165.219l9.781,31.781
			l13.375,43.531l44.531,144.688H95.953L41.328,220.965L61.328,187.622L61.328,187.622z"/>
	</g>
	<g>
	</g>
	<g>
	</g>
	<g>
	</g>
	<g>
	</g>
	<g>
	</g>
	<g>
	</g>
	<g>
	</g>
	<g>
	</g>
	<g>
	</g>
	<g>
	</g>
	<g>
	</g>
	<g>
	</g>
	<g>
	</g>
	<g>
	</g>
	<g>
	</g>
</g>
<g>
</g>
<g>
</g>
<g>
</g>
<g>
</g>
<g>
</g>
<g>
</g>
<g>
</g>
<g>
</g>
<g>
</g>
<g>
</g>
<g>
</g>
<g>
</g>
<g>
</g>
<g>
</g>
<g>
</g>
</svg>
