<?xml version="1.0" encoding="utf-8"?>
<!-- Svg Vector Icons : http://www.onlinewebfonts.com/icon -->
<!DOCTYPE svg PUBLIC "-//W3C//DTD SVG 1.1//EN" "http://www.w3.org/Graphics/SVG/1.1/DTD/svg11.dtd">
<svg version="1.1" xmlns="http://www.w3.org/2000/svg" xmlns:xlink="http://www.w3.org/1999/xlink" x="0px" y="0px" viewBox="0 0 256 256" enable-background="new 0 0 256 256" xml:space="preserve">
<metadata> Svg Vector Icons : http://www.onlinewebfonts.com/icon </metadata>
<g><g><path fill="#000000" d="M192.8,251.1l-0.1-0.9H132V230l68-0.3c13.7-1.9,24.3-13.4,25.2-27.1l0.7-10.1l20.1,1.3l-0.7,10.1c-1.5,22.2-17.8,40.8-39.4,45.3v1h-6.6L192.8,251.1z M111.8,250.1H59.6c-4.9,0-9.8-0.7-14.5-2.2l-9.6-3l5.9-19.3l9.6,3c2.8,0.9,5.7,1.3,8.5,1.3h52.2L111.8,250.1L111.8,250.1z M14.1,222.7l-2.5-9.8c-1.1-4-1.6-8.2-1.6-12.4v-53.9h20.2v53.9c0,2.5,0.3,4.9,0.9,7.3l2.5,9.8L14.1,222.7z M245.4,172.9h-20.2v-74h20.2V172.9z M30.2,126.5H10v-74h20.2L30.2,126.5L30.2,126.5z M245.4,78.8h-20.2V54.5c0-10-5.1-19.3-13.7-24.8l-8.5-5.4l10.9-17l8.5,5.4c14.4,9.2,23,24.8,23,41.8L245.4,78.8L245.4,78.8z M32.2,40L18.4,25.3l7.4-6.9C35,9.7,47,4.9,59.6,4.9h34.2v20.2H59.6c-7.4,0-14.6,2.8-20,8L32.2,40z M187.9,25.1h-74V4.9h74V25.1z"/></g></g>
</svg>